PathFileType	4	(X/Y/Z)	 s09c0303.trc
DataRate	CameraRate	NumFrames	NumMarkers	Units	OrigDataRate	OrigDataStartFrame	OrigNumFrames
200	200	5	50	mm	200	1	2000
Frame#	Time	racr			lacr			c7			jug			rlel			rdr			llel			ldr			s2			lic			ric			lasi			rasi			rpsi			lpsi			rgt			lgt			rth1			rth2			rth3			rth4			rlfc			rmfc			rsh1			rsh2			rsh3			rsh4			rlmal			rmmal			rcal			rtoe			rmt5			lth1			lth2			lth4			lth3			llfc			lmfc			llmal			lmmal			lcal			lmt5			lsh1			lsh2			lsh3			lsh4			ltoe			SBIKE			LBIKE			RBIKE			
		X1	Y1	Z1	X2	Y2	Z2	X3	Y3	Z3	X4	Y4	Z4	X5	Y5	Z5	X6	Y6	Z6	X7	Y7	Z7	X8	Y8	Z8	X9	Y9	Z9	X10	Y10	Z10	X11	Y11	Z11	X12	Y12	Z12	X13	Y13	Z13	X14	Y14	Z14	X15	Y15	Z15	X16	Y16	Z16	X17	Y17	Z17	X18	Y18	Z18	X19	Y19	Z19	X20	Y20	Z20	X21	Y21	Z21	X22	Y22	Z22	X23	Y23	Z23	X24	Y24	Z24	X25	Y25	Z25	X26	Y26	Z26	X27	Y27	Z27	X28	Y28	Z28	X29	Y29	Z29	X30	Y30	Z30	X31	Y31	Z31	X32	Y32	Z32	X33	Y33	Z33	X34	Y34	Z34	X35	Y35	Z35	X36	Y36	Z36	X37	Y37	Z37	X38	Y38	Z38	X39	Y39	Z39	X40	Y40	Z40	X41	Y41	Z41	X42	Y42	Z42	X43	Y43	Z43	X44	Y44	Z44	X45	Y45	Z45	X46	Y46	Z46	X47	Y47	Z47	X48	Y48	Z48	X49	Y49	Z49	X50	Y50	Z50	
1	0.0050	449.297352	1267.320214	-106.471550	433.844045	1254.617899	-397.324906	408.300958	1277.527784	-247.028017	409.475973	1144.480587	-246.576384	505.160374	1033.680111	-13.037365	704.751659	874.354101	-56.535688	478.413785	1000.895939	-498.583493	697.130119	878.721588	-442.828627	-73.646657	1129.297067	-230.787259	62.616292	1119.952761	-376.197148	72.047103	1111.622453	-81.243609	101.448433	1063.654982	-357.646561	109.091247	1052.233614	-100.471134	-39.956917	1155.488929	-170.545101	-42.385977	1166.086973	-278.756678	31.487136	970.186707	-37.780940	21.886020	1007.913563	-427.091339	117.797758	856.627368	-42.858896	187.124276	804.971767	-51.308657	218.252393	721.815401	-63.402980	213.742056	824.283139	-68.630071	262.400202	635.870173	-96.005493	244.483449	622.909707	-192.222883	197.233713	555.110925	-65.996503	174.286536	469.154319	-83.123068	112.351067	407.275578	-82.416444	195.168020	462.098184	-115.493212	57.251063	322.992687	-85.163393	60.149939	336.208031	-162.583543	-26.365354	303.409994	-122.849297	231.138421	241.439119	-124.184324	145.567149	241.586629	-60.558330	144.667722	945.224150	-427.722142	229.756970	938.034485	-417.796819	241.741542	971.358358	-405.532350	303.677214	887.505482	-416.879432	385.324767	832.981100	-399.013218	405.913578	822.073799	-302.707871	323.680644	477.434558	-406.763146	335.329519	486.727816	-331.960630	254.872425	427.063602	-366.828941	424.989270	401.847455	-435.838745	367.373396	734.706537	-420.115523	374.886150	648.290292	-411.429056	337.106129	568.376736	-410.376913	400.655925	646.856782	-381.829647	514.566804	441.171052	-367.502554	-65.381442	850.900145	-238.797856	20.995612	84.623851	-442.142328	21.214637	83.893365	-43.697949	
2	0.0100	449.222041	1267.234420	-106.372884	433.570637	1254.718723	-397.415893	408.146871	1277.558539	-246.975780	409.296964	1144.506368	-246.620621	505.088653	1033.607918	-13.078822	704.770843	874.355891	-56.519747	478.500815	1001.070849	-498.435122	697.147109	878.712632	-442.791298	-73.784986	1129.257392	-230.773721	62.491152	1119.989278	-376.149690	71.934065	1111.581502	-81.236249	101.349209	1063.683847	-357.635306	108.982904	1052.178803	-100.482790	-40.113583	1155.428386	-170.544435	-42.539286	1166.029061	-278.732259	31.413049	970.120088	-37.775584	21.832368	1007.830716	-427.096022	117.747327	856.565520	-42.817349	187.053784	804.924914	-51.263407	218.181131	721.761953	-63.343243	213.689111	824.239945	-68.609219	262.361104	635.811668	-95.978118	244.441294	622.875884	-192.184267	197.194700	555.082483	-65.957195	174.255743	469.110218	-83.085253	112.308355	407.244016	-82.398338	195.151680	462.077927	-115.457136	57.203488	322.971911	-85.155760	60.123095	336.142959	-162.574937	-26.405964	303.383529	-122.878582	231.131873	241.466701	-124.177387	145.556958	241.590603	-60.566081	144.633006	945.196158	-427.744968	229.744562	938.074411	-417.776801	241.702150	971.349985	-405.574404	303.668183	887.506550	-416.896486	385.286658	833.006677	-399.034889	405.942949	822.076814	-302.762159	323.683220	477.479963	-406.773545	335.334769	486.785326	-331.934658	254.870395	427.104159	-366.822497	424.999050	401.857484	-435.841656	367.376279	734.702452	-420.135698	374.892269	648.309365	-411.437978	337.102822	568.369872	-410.393446	400.671220	646.896517	-381.857997	514.580779	441.164947	-367.484977	-65.368339	850.908795	-238.797962	20.991638	84.631982	-442.141195	21.226621	83.887176	-43.703555	
3	0.0150	449.097317	1267.200105	-106.301370	433.331897	1254.842483	-397.468698	407.983953	1277.620013	-247.063510	409.106591	1144.564116	-246.652597	505.033440	1033.564609	-13.103921	704.769039	874.361189	-56.522961	478.584162	1001.282978	-498.275585	697.170241	878.688643	-442.742932	-73.901430	1129.176741	-230.751162	62.366530	1120.028182	-376.103202	71.826855	1111.550030	-81.215827	101.254126	1063.716093	-357.590935	108.880008	1052.135524	-100.470535	-40.240450	1155.352018	-170.534963	-42.644154	1165.937224	-278.751294	31.346226	970.057348	-37.765534	21.789720	1007.789999	-427.089883	117.687461	856.517175	-42.793213	186.991106	804.875473	-51.223823	218.088636	721.689909	-63.324149	213.624504	824.209487	-68.556667	262.314206	635.776992	-95.936074	244.408831	622.857054	-192.140541	197.146142	555.058520	-65.927154	174.215054	469.075724	-83.054868	112.268079	407.209553	-82.377136	195.105491	462.048099	-115.441119	57.165743	322.944286	-85.141763	60.098276	336.115864	-162.570177	-26.424345	303.337649	-122.871980	231.131411	241.474396	-124.174648	145.543342	241.574066	-60.550649	144.599084	945.181957	-427.773992	229.713123	938.075206	-417.785447	241.654505	971.352420	-405.593331	303.640069	887.504411	-416.906065	385.260406	833.044927	-399.077329	405.911871	822.138609	-302.784095	323.703227	477.510362	-406.767282	335.338326	486.809964	-331.944844	254.649569	427.231732	-367.097423	424.993411	401.871896	-435.834761	367.389452	734.734072	-420.140378	374.899052	648.338822	-411.438350	337.116335	568.384141	-410.411820	400.674991	646.941176	-381.858910	514.589263	441.175780	-367.496428	-65.371964	850.903933	-238.786794	20.991542	84.624301	-442.139193	21.226627	83.877613	-43.686951	
4	0.0200	448.724357	1267.886012	-105.655505	433.086429	1254.983681	-397.517194	407.816202	1277.218859	-246.946679	408.943033	1145.139380	-246.848817	504.974008	1033.492943	-13.129165	704.767317	874.325665	-56.518236	478.679202	1001.494976	-498.102497	697.180926	878.673352	-442.692514	-73.518457	1130.582546	-231.522392	62.242016	1120.066700	-376.057306	71.709078	1111.492484	-81.179195	101.172558	1063.733872	-357.546648	108.580595	1051.813123	-100.427184	-40.066033	1156.615261	-169.211022	-41.624996	1165.255490	-279.072617	31.606054	969.912935	-37.500410	21.725766	1007.741361	-427.084789	117.642897	856.502253	-42.648890	187.355363	804.380672	-51.139714	218.027093	721.664781	-63.270311	213.574195	824.169804	-68.484761	262.331419	635.717675	-95.786807	245.021490	622.587703	-191.832031	197.099910	555.028375	-65.899120	174.212692	468.990312	-82.900826	112.371625	407.028864	-82.412555	194.999842	461.913329	-115.615629	56.629629	323.650969	-84.625654	61.859811	335.189077	-163.547061	-26.431300	303.262565	-122.831938	231.110224	241.488280	-124.168332	145.551216	241.568592	-60.548507	144.583203	944.888507	-427.842550	229.063528	938.375576	-418.994927	241.397447	971.821753	-405.589679	303.609205	887.357578	-417.007492	385.218021	832.959108	-399.131770	405.864267	822.174140	-302.767216	323.465223	477.968646	-406.852675	335.364562	486.845676	-331.952474	254.655653	427.286797	-367.100765	424.998310	401.881805	-435.845861	367.384525	734.761335	-420.155117	375.017363	648.533879	-412.028646	337.136451	568.412022	-410.410035	400.827911	646.723467	-381.693478	514.594638	441.170055	-367.492063	-65.408730	850.922744	-238.882093	20.987145	84.625233	-442.142843	21.224355	83.882980	-43.685580	
5	0.0250	448.474777	1268.065619	-106.006274	432.723282	1255.302054	-397.545759	407.690080	1277.219437	-246.862011	408.491103	1145.647418	-246.869440	504.709121	1033.757354	-13.171806	704.395633	874.811483	-56.607035	478.655863	1001.801887	-497.814721	696.990834	878.742935	-442.644557	-73.617793	1130.604654	-231.921913	62.117841	1120.105365	-376.012733	71.361101	1111.738128	-81.168288	101.217374	1063.739135	-357.156024	108.393731	1052.129837	-100.560722	-40.262437	1156.588112	-169.142601	-41.815033	1165.268162	-279.001322	31.220342	970.147024	-37.566957	21.739833	1007.852752	-426.915677	117.371072	856.734862	-42.696192	187.226774	804.573558	-51.038592	217.803181	722.009564	-63.139057	213.422072	824.481555	-68.271561	262.049233	636.153466	-95.662843	244.901341	622.885396	-191.879100	196.837111	555.312082	-65.823454	174.081109	469.445258	-82.788916	112.020163	407.419064	-82.191657	194.637725	462.408887	-115.487528	56.738848	323.499263	-84.707556	61.114668	335.743055	-163.439850	-26.491411	303.196919	-122.917778	231.007150	241.739098	-124.072065	145.430385	241.811338	-60.407413	144.511243	945.080315	-427.770277	228.937815	938.574814	-418.920470	241.368956	971.780276	-405.648318	303.296130	887.596491	-417.088186	385.154996	833.006214	-399.375609	405.717570	822.783119	-302.732363	323.434647	477.973276	-406.921559	335.411238	487.108123	-331.986030	254.820667	427.302390	-366.836940	424.934019	402.207773	-435.825696	367.151117	735.196849	-420.515965	374.791311	649.021648	-412.260046	336.928172	568.730563	-410.386977	400.765997	646.935716	-381.582821	514.445514	441.348440	-367.553693	-65.386793	850.900085	-238.882505	20.775005	84.756612	-442.192728	21.136177	84.026552	-43.738859	
